<svg xmlns="http://www.w3.org/2000/svg" xmlns:xlink="http://www.w3.org/1999/xlink" width="1920" height="1140" viewBox="0 0 1920 1140">
    <defs>
        <filter id="1e1jjofxsb" width="204.3%" height="204.5%" x="-52.2%" y="-52.2%" filterUnits="objectBoundingBox">
            <feOffset dx="1" dy="2" in="SourceAlpha" result="shadowOffsetOuter1"/>
            <feGaussianBlur in="shadowOffsetOuter1" result="shadowBlurOuter1" stdDeviation="1"/>
            <feColorMatrix in="shadowBlurOuter1" result="shadowMatrixOuter1" values="0 0 0 0 0 0 0 0 0 0 0 0 0 0 0 0 0 0 0.104376093 0"/>
            <feMerge>
                <feMergeNode in="shadowMatrixOuter1"/>
                <feMergeNode in="SourceGraphic"/>
            </feMerge>
        </filter>
        <filter id="1u39e2gyvc" width="160.9%" height="146.5%" x="-26.1%" y="-11.6%" filterUnits="objectBoundingBox">
            <feOffset dx="2" dy="7" in="SourceAlpha" result="shadowOffsetOuter1"/>
            <feGaussianBlur in="shadowOffsetOuter1" result="shadowBlurOuter1" stdDeviation="3.5"/>
            <feColorMatrix in="shadowBlurOuter1" values="0 0 0 0 0 0 0 0 0 0 0 0 0 0 0 0 0 0 0.1 0"/>
        </filter>
        <linearGradient id="xlym1tzfka" x1="40.31%" x2="60.153%" y1="94.801%" y2="1.786%">
            <stop offset="0%" stop-color="#91A6FF" stop-opacity="0"/>
            <stop offset="6.687%" stop-color="#91A6FF"/>
            <stop offset="21.635%" stop-color="#91A6FF" stop-opacity=".9"/>
            <stop offset="93.676%" stop-color="#91A6FF"/>
            <stop offset="100%" stop-color="#FFF" stop-opacity="0"/>
            <stop offset="100%" stop-color="#FFF" stop-opacity="0"/>
        </linearGradient>
        <path id="k55gomnzqd" d="M23 0C10.332 0 0 10.292 0 22.911c0 5.005 1.592 9.764 4.6 13.747L21.585 59.45c.247.353.92.705 1.415.705.531 0 1.168-.387 1.416-.705.07-.106 17.16-23.04 17.303-23.252.035 0 .035 0 .035-.035C44.514 32.287 46 27.704 46 22.911 46 10.292 35.668 0 23 0z"/>
    </defs>
    <g fill="none" fill-rule="evenodd">
        <g>
            <path stroke="url(#xlym1tzfka)" stroke-dasharray="10 7" stroke-width="1.5" d="M659.297 1611.441c-66.324-67.262-95.63-137.278-87.916-210.05 28.57-116.787 165.716-200.16 411.438-250.121 368.582-74.941 289.41-292.794 259.512-470.612-29.898-177.818-134.272-249.28-252.633-264.759-118.362-15.478-318.118-64.42-258.356-248.72 59.763-184.3 566.9-145.457 653.305-333.657" opacity=".567" transform="translate(0 -46) scale(-1 1) rotate(67 0 -754.226)"/>
            <g>
                <g fill="#F23EA6" filter="url(#1e1jjofxsb)" transform="translate(0 -46) translate(625 243) translate(15.333 54.688)">
                    <ellipse cx="7.667" cy="7.656" rx="7.667" ry="7.656"/>
                </g>
                <g>
                    <g transform="translate(0 -46) translate(625 243)">
                        <use fill="#000" filter="url(#1u39e2gyvc)" xlink:href="#k55gomnzqd"/>
                        <use fill="#FFF" xlink:href="#k55gomnzqd"/>
                    </g>
                    <g>
                        <g transform="translate(0 -46) translate(625 243) translate(10.733 11.569)">
                            <ellipse cx="12.267" cy="12.34" fill="#111" rx="12.267" ry="12.34"/>
                            <path fill="#75DBCD" d="M9.812 7.368v9.224c0 .316.256.572.572.572.124 0 .245-.04.344-.115l5.731-4.325c.252-.19.303-.55.112-.801-.025-.033-.053-.064-.085-.09l-5.73-4.9c-.24-.205-.602-.177-.807.064-.089.103-.137.235-.137.371z"/>
                        </g>
                    </g>
                </g>
            </g>
        </g>
    </g>
</svg>
